<?xml version="1.0" encoding="utf-8"?>
<!-- Generator: Adobe Illustrator 16.0.2, SVG Export Plug-In . SVG Version: 6.00 Build 0)  -->
<!DOCTYPE svg PUBLIC "-//W3C//DTD SVG 1.1//EN" "http://www.w3.org/Graphics/SVG/1.1/DTD/svg11.dtd">
<svg version="1.1" id="Layer_2" xmlns="http://www.w3.org/2000/svg" xmlns:xlink="http://www.w3.org/1999/xlink" x="0px" y="0px"
	 width="100px" height="100px" viewBox="0 0 100 100" enable-background="new 0 0 100 100" xml:space="preserve">
<linearGradient id="SVGID_1_" gradientUnits="userSpaceOnUse" x1="-425.1772" y1="123.0859" x2="-423.92" y2="124.3431" gradientTransform="matrix(5.687 0 0 6.014 2437.2783 -725.7158)">
	<stop  offset="0" style="stop-color:#FAC100"/>
	<stop  offset="0.5" style="stop-color:#FF9400"/>
	<stop  offset="1" style="stop-color:#FD2704"/>
</linearGradient>
<path fill="url(#SVGID_1_)" d="M24.056,17.698c0.086,0,0.128,0.099,0.128,0.298c0,0.198-0.042,0.369-0.128,0.509
	c-0.086,0.143-0.181,0.22-0.282,0.228c-0.101,0.011-0.206,0.027-0.313,0.051c-0.108,0.025-0.229,0.057-0.369,0.099
	c-0.136,0.041-0.261,0.098-0.375,0.169c-0.114,0.072-0.219,0.155-0.316,0.251c-0.213,0.202-0.319,0.48-0.319,0.833
	c0,0.233,0.04,0.438,0.118,0.612c0.078,0.172,0.18,0.31,0.308,0.404c0.244,0.183,0.516,0.271,0.814,0.271
	c0.456,0,1.041-0.145,1.75-0.436c0.041-0.019,0.077-0.024,0.107-0.024c0.085,0,0.129,0.066,0.129,0.192
	c0,0.237-0.163,0.467-0.485,0.692c-0.324,0.223-0.719,0.4-1.186,0.528c-0.466,0.127-0.905,0.193-1.319,0.193
	c-0.415,0-0.785-0.038-1.112-0.117c-0.327-0.08-0.615-0.196-0.868-0.356c-0.253-0.157-0.448-0.364-0.588-0.629
	c-0.139-0.262-0.21-0.563-0.21-0.905c0-0.341,0.07-0.652,0.208-0.922c0.137-0.273,0.317-0.5,0.542-0.674
	c0.224-0.179,0.487-0.329,0.783-0.453c0.561-0.221,1.18-0.333,1.857-0.333c-0.482-0.037-0.842-0.101-1.077-0.183
	c-0.239-0.084-0.426-0.168-0.563-0.247c-0.136-0.079-0.252-0.169-0.346-0.271c-0.212-0.229-0.32-0.516-0.32-0.861
	c0-0.348,0.085-0.666,0.26-0.959c0.174-0.293,0.403-0.533,0.689-0.719c0.593-0.386,1.282-0.579,2.064-0.579
	c1.065,0,1.796,0.177,2.194,0.534c0.085,0.078,0.129,0.192,0.129,0.342s-0.074,0.398-0.223,0.745
	c-0.149,0.345-0.268,0.583-0.361,0.714c-0.091,0.133-0.177,0.199-0.255,0.199c-0.079,0-0.15-0.043-0.213-0.126
	s-0.113-0.188-0.148-0.315c-0.249-0.832-0.631-1.245-1.146-1.245c-0.3,0-0.551,0.121-0.757,0.364
	c-0.207,0.245-0.307,0.537-0.307,0.885c0,0.347,0.119,0.646,0.354,0.896c0.238,0.252,0.527,0.374,0.867,0.374L24.056,17.698z"/>
<linearGradient id="SVGID_2_" gradientUnits="userSpaceOnUse" x1="-432.3755" y1="180.6602" x2="-431.1278" y2="181.9078" gradientTransform="matrix(6.21 0 0 4.103 2710.0574 -723.806)">
	<stop  offset="0" style="stop-color:#FAC100"/>
	<stop  offset="0.5" style="stop-color:#FF9400"/>
	<stop  offset="1" style="stop-color:#FD2704"/>
</linearGradient>
<path fill="url(#SVGID_2_)" d="M32.667,20.919c0.085,0,0.125,0.057,0.125,0.174c0,0.116-0.04,0.219-0.125,0.307
	c-0.08,0.089-0.203,0.189-0.364,0.303c-0.161,0.115-0.362,0.239-0.601,0.373c-0.239,0.135-0.516,0.251-0.83,0.349
	c-0.314,0.097-0.617,0.145-0.902,0.145c-0.675,0-1.012-0.23-1.012-0.691c0-0.297,0.114-0.83,0.342-1.597
	c0.229-0.768,0.342-1.283,0.342-1.551c0-0.303-0.156-0.453-0.474-0.453c-0.143,0-0.305,0.024-0.487,0.079
	c-0.085,0.456-0.24,1.177-0.461,2.163c-0.22,0.986-0.347,1.551-0.375,1.686c-0.028,0.133-0.089,0.202-0.182,0.202l-1.754,0.056
	c-0.023,0-0.053-0.025-0.083-0.067c-0.03-0.045-0.045-0.102-0.045-0.164c0-0.063,0.047-0.285,0.143-0.667
	c0.097-0.379,0.205-0.79,0.32-1.229c0.118-0.438,0.224-0.921,0.32-1.447s0.144-0.964,0.144-1.308l-0.003-0.194
	c0-0.169,0.11-0.255,0.33-0.255l1.617-0.055c0.059,0,0.104,0.025,0.132,0.077c0.028,0.052,0.044,0.117,0.044,0.194
	c0,0.074-0.013,0.198-0.036,0.366c0.799-0.498,1.454-0.745,1.968-0.745c0.217,0,0.417,0.086,0.595,0.267
	c0.201,0.199,0.301,0.504,0.301,0.909c0,0.417-0.107,0.963-0.315,1.635c-0.212,0.673-0.316,1.091-0.316,1.25
	c0,0.315,0.083,0.473,0.251,0.473c0.107,0,0.288-0.061,0.545-0.181c0.257-0.121,0.45-0.22,0.573-0.297
	C32.517,20.957,32.607,20.919,32.667,20.919z"/>
<linearGradient id="SVGID_3_" gradientUnits="userSpaceOnUse" x1="-404.981" y1="94.1982" x2="-403.7239" y2="95.4553" gradientTransform="matrix(4.613 0 0 7.862 1898.6802 -725.8127)">
	<stop  offset="0" style="stop-color:#FAC100"/>
	<stop  offset="0.5" style="stop-color:#FF9400"/>
	<stop  offset="1" style="stop-color:#FD2704"/>
</linearGradient>
<path fill="url(#SVGID_3_)" d="M36.13,20.919c0.103,0,0.153,0.069,0.153,0.207c0,0.191-0.288,0.427-0.865,0.711
	c-0.357,0.179-0.733,0.318-1.126,0.418c-0.053,0.283-0.123,0.628-0.212,1.03c-0.129,0.594-0.327,1.02-0.588,1.282
	c-0.26,0.262-0.618,0.391-1.071,0.391c-0.452,0-0.815-0.083-1.084-0.254c-0.175-0.109-0.261-0.239-0.261-0.396
	c0-0.153,0.059-0.229,0.178-0.229l0.233,0.021c0.171,0,0.341-0.265,0.508-0.802c0.1-0.323,0.231-0.862,0.397-1.614
	c0.327-1.52,0.588-2.943,0.782-4.278c0.014-0.104,0.036-0.172,0.068-0.219c0.03-0.042,0.093-0.063,0.189-0.063l1.656-0.056
	c0.059,0,0.106,0.022,0.144,0.066c0.037,0.043,0.057,0.102,0.057,0.175c0,0.072-0.023,0.199-0.071,0.376
	c-0.048,0.179-0.097,0.367-0.146,0.564c-0.049,0.196-0.096,0.405-0.143,0.619c-0.046,0.22-0.084,0.392-0.115,0.525
	c-0.029,0.131-0.068,0.322-0.113,0.571c-0.044,0.246-0.075,0.409-0.088,0.484c-0.015,0.077-0.044,0.257-0.094,0.538
	c-0.048,0.282-0.077,0.444-0.084,0.479c0.522-0.048,0.973-0.176,1.361-0.396C35.975,20.97,36.087,20.919,36.13,20.919z
	 M35.668,15.205c0,0.364-0.135,0.679-0.403,0.947c-0.269,0.266-0.553,0.402-0.851,0.402c-0.299,0-0.532-0.09-0.696-0.27
	c-0.165-0.181-0.25-0.402-0.25-0.663c0-0.262,0.064-0.499,0.191-0.711s0.293-0.378,0.494-0.502c0.205-0.122,0.426-0.183,0.665-0.183
	c0.238,0,0.44,0.093,0.603,0.283C35.586,14.693,35.668,14.927,35.668,15.205z"/>
<linearGradient id="SVGID_4_" gradientUnits="userSpaceOnUse" x1="-430.2402" y1="180.9502" x2="-428.956" y2="182.2344" gradientTransform="matrix(6.061 0 0 4.096 2642.8276 -723.7977)">
	<stop  offset="0" style="stop-color:#FAC100"/>
	<stop  offset="0.5" style="stop-color:#FF9400"/>
	<stop  offset="1" style="stop-color:#FD2704"/>
</linearGradient>
<path fill="url(#SVGID_4_)" d="M36.479,22.026c-0.429-0.383-0.642-0.964-0.642-1.744c0-0.407,0.056-0.788,0.167-1.144
	c0.115-0.358,0.267-0.665,0.465-0.927c0.195-0.262,0.424-0.483,0.685-0.67c0.523-0.374,1.12-0.563,1.795-0.563
	c1.328,0,2.04,0.626,2.146,1.878c0.16,0.078,0.322,0.117,0.492,0.117c0.171,0,0.311-0.02,0.426-0.056
	c0.113-0.037,0.221-0.092,0.321-0.169c0.1-0.074,0.172-0.113,0.214-0.113c0.088,0,0.13,0.061,0.13,0.19
	c0,0.124-0.068,0.255-0.201,0.391c-0.254,0.258-0.588,0.387-1.001,0.387c-0.157,0-0.285-0.012-0.382-0.035
	c-0.072,0.853-0.37,1.564-0.886,2.128c-0.248,0.271-0.551,0.483-0.913,0.64c-0.358,0.156-0.731,0.234-1.116,0.234
	c-0.385,0-0.716-0.045-0.99-0.135C36.921,22.345,36.683,22.208,36.479,22.026z M37.716,20.731c0,0.625,0.152,0.939,0.459,0.939
	c0.196,0,0.376-0.16,0.546-0.475c0.17-0.315,0.301-0.712,0.396-1.186c0.095-0.469,0.143-0.948,0.143-1.437
	c0-0.492-0.117-0.735-0.346-0.735c-0.199,0-0.392,0.138-0.58,0.42c-0.188,0.281-0.337,0.646-0.45,1.095
	C37.771,19.798,37.716,20.259,37.716,20.731z"/>
<linearGradient id="SVGID_5_" gradientUnits="userSpaceOnUse" x1="-432.5229" y1="127.6777" x2="-431.2615" y2="128.9392" gradientTransform="matrix(6.248 0 0 5.805 2743.3445 -723.7175)">
	<stop  offset="0" style="stop-color:#FAC100"/>
	<stop  offset="0.5" style="stop-color:#FF9400"/>
	<stop  offset="1" style="stop-color:#FD2704"/>
</linearGradient>
<path fill="url(#SVGID_5_)" d="M48.367,20.919c0.085,0,0.125,0.057,0.125,0.172c0,0.227-0.29,0.521-0.871,0.883
	c-0.362,0.227-0.763,0.411-1.2,0.549c-0.055,0.227-0.104,0.427-0.147,0.603c-0.042,0.173-0.122,0.369-0.234,0.587
	c-0.117,0.218-0.251,0.398-0.406,0.543c-0.154,0.145-0.323,0.266-0.501,0.366c-0.179,0.099-0.377,0.177-0.602,0.232
	c-0.4,0.102-0.87,0.151-1.41,0.151c-0.538,0-0.955-0.087-1.247-0.268c-0.29-0.178-0.436-0.438-0.436-0.776
	c0-0.196,0.057-0.373,0.17-0.534c0.114-0.16,0.262-0.292,0.446-0.404c0.184-0.106,0.416-0.207,0.699-0.294
	c0.483-0.145,1.091-0.265,1.82-0.361c0.065-0.302,0.109-0.555,0.135-0.756c-0.661,0.365-1.269,0.55-1.819,0.55
	c-0.738,0-1.108-0.364-1.108-1.09c0-0.511,0.102-1.143,0.309-1.899c0.206-0.75,0.308-1.281,0.308-1.584l-0.004-0.194
	c0-0.171,0.111-0.257,0.331-0.257l0.794,0.021l0.718-0.076c0.062,0,0.104,0.027,0.134,0.078c0.028,0.055,0.042,0.144,0.042,0.276
	c0,0.128-0.033,0.356-0.099,0.68c-0.069,0.323-0.14,0.626-0.219,0.906c-0.214,0.753-0.324,1.262-0.324,1.525
	c0,0.15,0.037,0.263,0.11,0.341c0.072,0.075,0.168,0.116,0.288,0.116c0.248,0,0.481-0.104,0.698-0.31
	c0.243-0.979,0.467-2.068,0.669-3.269c0.024-0.125,0.082-0.186,0.182-0.186c0.328,0,0.681-0.026,1.058-0.081
	c0.377-0.052,0.591-0.077,0.648-0.077c0.055,0,0.098,0.021,0.13,0.063c0.032,0.038,0.047,0.078,0.047,0.116
	c0,0.146-0.338,1.672-1.017,4.578c0.335-0.117,0.648-0.261,0.938-0.423c0.29-0.165,0.488-0.288,0.592-0.37
	C48.222,20.959,48.306,20.919,48.367,20.919z M44.283,23.651c0.065-0.249,0.121-0.482,0.169-0.703
	c-1.022,0.194-1.532,0.546-1.532,1.056c0,0.131,0.046,0.256,0.137,0.371c0.092,0.12,0.185,0.175,0.278,0.175
	c0.208,0,0.4-0.077,0.581-0.236C44.094,24.163,44.216,23.94,44.283,23.651z"/>
<linearGradient id="SVGID_6_" gradientUnits="userSpaceOnUse" x1="-418.5059" y1="180.8369" x2="-417.2661" y2="182.0768" gradientTransform="matrix(5.313 0 0 4.098 2273.4482 -723.8)">
	<stop  offset="0" style="stop-color:#FAC100"/>
	<stop  offset="0.5" style="stop-color:#FF9400"/>
	<stop  offset="1" style="stop-color:#FD2704"/>
</linearGradient>
<path fill="url(#SVGID_6_)" d="M52.938,22.564c-0.061,0.002-0.145,0.006-0.254,0.006c-0.521,0-1.014-0.073-1.479-0.219
	c-0.462-0.146-0.735-0.315-0.82-0.511c-0.026-0.06-0.041-0.135-0.041-0.228c0-0.091,0.072-0.236,0.218-0.438
	c0.146-0.204,0.244-0.303,0.299-0.303s0.109,0.03,0.168,0.089c0.061,0.059,0.123,0.131,0.193,0.216
	c0.069,0.083,0.147,0.17,0.233,0.255c0.207,0.204,0.455,0.306,0.748,0.306c0.114,0,0.209-0.045,0.278-0.131
	c0.072-0.086,0.109-0.199,0.109-0.333c0-0.134-0.031-0.25-0.094-0.347c-0.059-0.097-0.139-0.185-0.234-0.259
	c-0.094-0.075-0.201-0.145-0.315-0.217c-0.115-0.075-0.233-0.153-0.351-0.239s-0.224-0.179-0.32-0.281
	c-0.215-0.228-0.323-0.51-0.323-0.846c0-0.339,0.069-0.629,0.206-0.879c0.137-0.246,0.313-0.445,0.521-0.594
	c0.207-0.148,0.445-0.272,0.709-0.376c0.461-0.172,0.9-0.258,1.312-0.258c0.413,0,0.796,0.03,1.153,0.094
	c0.354,0.063,0.598,0.155,0.733,0.275c0.035,0.03,0.052,0.113,0.052,0.241c0,0.131-0.029,0.316-0.091,0.56
	c-0.063,0.242-0.141,0.466-0.231,0.67c-0.096,0.205-0.178,0.308-0.258,0.308c-0.027,0-0.053-0.018-0.072-0.056
	c-0.215-0.388-0.424-0.684-0.629-0.893c-0.203-0.21-0.422-0.314-0.662-0.314c-0.182,0-0.311,0.058-0.391,0.167
	c-0.078,0.112-0.119,0.224-0.119,0.343s0.043,0.232,0.133,0.341c0.087,0.109,0.195,0.206,0.326,0.294
	c0.131,0.086,0.271,0.188,0.426,0.307c0.152,0.119,0.295,0.236,0.425,0.357s0.239,0.271,0.327,0.454
	c0.088,0.178,0.131,0.409,0.131,0.683c0,0.272-0.068,0.542-0.204,0.803c0.565-0.171,1.006-0.379,1.324-0.625
	c0.056-0.045,0.099-0.067,0.141-0.067c0.086,0,0.125,0.066,0.125,0.194c0,0.108-0.042,0.209-0.13,0.298
	c-0.09,0.09-0.232,0.199-0.439,0.324c-0.205,0.127-0.447,0.255-0.729,0.385C54.391,22.414,53.688,22.564,52.938,22.564z"/>
<linearGradient id="SVGID_7_" gradientUnits="userSpaceOnUse" x1="-431.9858" y1="130.7549" x2="-430.734" y2="132.0068" gradientTransform="matrix(6.216 0 0 5.669 2739.6528 -725.3687)">
	<stop  offset="0" style="stop-color:#FAC100"/>
	<stop  offset="0.5" style="stop-color:#FF9400"/>
	<stop  offset="1" style="stop-color:#FD2704"/>
</linearGradient>
<path fill="url(#SVGID_7_)" d="M57.466,14.843l1.562-0.015c0.052,0,0.096,0.023,0.127,0.072c0.031,0.049,0.049,0.13,0.049,0.242
	c0,0.111-0.047,0.439-0.141,0.983c-0.092,0.543-0.197,1.075-0.313,1.596c0.298-0.189,0.625-0.36,0.986-0.515
	c0.359-0.154,0.686-0.229,0.975-0.229c0.219,0,0.416,0.088,0.598,0.267c0.199,0.199,0.297,0.504,0.297,0.908
	c0,0.403-0.104,0.946-0.315,1.631c-0.21,0.683-0.313,1.121-0.313,1.309c0,0.278,0.088,0.416,0.269,0.416
	c0.353,0,0.753-0.171,1.2-0.512c0.068-0.052,0.121-0.081,0.166-0.081c0.095,0,0.14,0.061,0.14,0.185s-0.049,0.234-0.153,0.332
	c-0.104,0.094-0.232,0.198-0.391,0.309c-0.158,0.112-0.354,0.232-0.59,0.364c-0.553,0.309-1.143,0.46-1.766,0.46
	c-0.631,0-0.942-0.229-0.942-0.69c0-0.297,0.116-0.83,0.344-1.597c0.229-0.769,0.343-1.284,0.343-1.553
	c0-0.32-0.156-0.484-0.473-0.484c-0.174,0-0.35,0.041-0.518,0.122c-0.377,1.64-0.643,2.925-0.81,3.854
	c-0.013,0.064-0.037,0.112-0.075,0.142c-0.041,0.029-0.076,0.045-0.104,0.045l-1.753,0.056c-0.025,0-0.055-0.023-0.082-0.07
	c-0.034-0.043-0.049-0.102-0.049-0.169c0-0.067,0.072-0.408,0.22-1.021c0.147-0.613,0.306-1.28,0.485-1.997
	c0.174-0.718,0.338-1.464,0.481-2.238c0.147-0.777,0.22-1.354,0.22-1.733l-0.002-0.142C57.137,14.928,57.246,14.843,57.466,14.843z"
	/>
<linearGradient id="SVGID_8_" gradientUnits="userSpaceOnUse" x1="-429.7559" y1="180.9492" x2="-428.4702" y2="182.2349" gradientTransform="matrix(6.062 0 0 4.096 2666.7783 -723.7977)">
	<stop  offset="0" style="stop-color:#FAC100"/>
	<stop  offset="0.5" style="stop-color:#FF9400"/>
	<stop  offset="1" style="stop-color:#FD2704"/>
</linearGradient>
<path fill="url(#SVGID_8_)" d="M62.945,22.026c-0.428-0.383-0.641-0.964-0.641-1.744c0-0.407,0.059-0.788,0.17-1.144
	c0.112-0.358,0.267-0.665,0.461-0.927c0.197-0.262,0.426-0.483,0.687-0.67c0.522-0.374,1.122-0.563,1.794-0.563
	c1.329,0,2.044,0.626,2.148,1.878c0.158,0.078,0.322,0.117,0.492,0.117s0.312-0.02,0.426-0.056c0.113-0.037,0.221-0.092,0.322-0.169
	c0.1-0.074,0.172-0.113,0.213-0.113c0.086,0,0.131,0.061,0.131,0.19c0,0.124-0.067,0.255-0.203,0.391
	c-0.254,0.258-0.586,0.387-1,0.387c-0.157,0-0.284-0.012-0.381-0.035c-0.071,0.853-0.369,1.564-0.888,2.128
	c-0.247,0.271-0.55,0.483-0.911,0.64c-0.361,0.156-0.731,0.234-1.115,0.234c-0.387,0-0.717-0.045-0.989-0.135
	C63.389,22.345,63.148,22.208,62.945,22.026z M64.184,20.731c0,0.625,0.152,0.939,0.461,0.939c0.192,0,0.375-0.16,0.543-0.475
	c0.17-0.315,0.301-0.712,0.397-1.186c0.095-0.469,0.142-0.948,0.142-1.437c0-0.492-0.115-0.735-0.345-0.735
	c-0.2,0-0.394,0.138-0.582,0.42c-0.187,0.281-0.338,0.646-0.446,1.095C64.24,19.798,64.184,20.259,64.184,20.731z"/>
<linearGradient id="SVGID_9_" gradientUnits="userSpaceOnUse" x1="-435.9409" y1="127.9746" x2="-434.7152" y2="129.2004" gradientTransform="matrix(6.567 0 0 5.794 2929.478 -723.7944)">
	<stop  offset="0" style="stop-color:#FAC100"/>
	<stop  offset="0.5" style="stop-color:#FF9400"/>
	<stop  offset="1" style="stop-color:#FD2704"/>
</linearGradient>
<path fill="url(#SVGID_9_)" d="M69.141,17.139l1.547-0.056c0.059,0,0.103,0.026,0.131,0.079c0.031,0.054,0.045,0.114,0.045,0.177
	c0,0.067-0.008,0.179-0.025,0.341c-0.014,0.161-0.021,0.276-0.021,0.352c0.416-0.703,0.974-1.055,1.672-1.055
	c0.424,0,0.76,0.161,1.003,0.484c0.245,0.323,0.366,0.782,0.366,1.375c0,1.151-0.303,2.093-0.912,2.826
	c0.705-0.074,1.248-0.268,1.625-0.584c0.123-0.107,0.217-0.158,0.275-0.158c0.075,0,0.116,0.063,0.116,0.187
	c0,0.088-0.042,0.179-0.126,0.269c-0.387,0.404-0.882,0.701-1.49,0.895c-0.605,0.193-1.26,0.289-1.959,0.289
	c-0.085,0.007-0.15,0.012-0.195,0.012c-0.239,0-0.479-0.055-0.721-0.163c-0.242-0.111-0.441-0.262-0.602-0.458
	c-0.155,0.712-0.233,1.538-0.233,2.475l0.003,0.145c0,0.169-0.109,0.255-0.33,0.255l-1.584,0.062c-0.054,0-0.098-0.023-0.127-0.073
	c-0.033-0.048-0.049-0.105-0.049-0.165c0-0.581,0.212-1.704,0.637-3.372c0.424-1.667,0.639-2.784,0.639-3.35l-0.016-0.42
	c0-0.124,0.021-0.218,0.063-0.277C68.91,17.169,69.003,17.139,69.141,17.139z M71.482,18.269c-0.426,0-0.783,0.485-1.07,1.461
	c-0.13,0.449-0.197,0.812-0.197,1.088c0,0.278,0.032,0.47,0.096,0.574c0.063,0.105,0.183,0.158,0.366,0.158
	c0.187,0,0.382-0.126,0.595-0.376c0.211-0.254,0.383-0.571,0.511-0.952c0.128-0.382,0.194-0.726,0.194-1.034
	c0-0.309-0.045-0.537-0.136-0.69C71.749,18.343,71.632,18.269,71.482,18.269z"/>
<linearGradient id="SVGID_10_" gradientUnits="userSpaceOnUse" x1="-435.8062" y1="127.9766" x2="-434.5827" y2="129.2" gradientTransform="matrix(6.565 0 0 5.794 2934.1191 -723.7944)">
	<stop  offset="0" style="stop-color:#FAC100"/>
	<stop  offset="0.5" style="stop-color:#FF9400"/>
	<stop  offset="1" style="stop-color:#FD2704"/>
</linearGradient>
<path fill="url(#SVGID_10_)" d="M75.534,17.139l1.546-0.056c0.059,0,0.104,0.026,0.132,0.079c0.029,0.054,0.045,0.114,0.045,0.177
	c0,0.067-0.009,0.179-0.024,0.341c-0.017,0.161-0.022,0.276-0.022,0.352c0.42-0.703,0.976-1.055,1.673-1.055
	c0.426,0,0.758,0.161,1.003,0.484c0.246,0.323,0.368,0.782,0.368,1.375c0,1.151-0.307,2.093-0.913,2.826
	c0.705-0.074,1.246-0.268,1.623-0.584c0.124-0.107,0.216-0.158,0.276-0.158c0.076,0,0.115,0.063,0.115,0.187
	c0,0.088-0.041,0.179-0.123,0.269c-0.387,0.404-0.885,0.701-1.492,0.895c-0.605,0.193-1.26,0.289-1.959,0.289
	c-0.086,0.007-0.149,0.012-0.193,0.012c-0.242,0-0.482-0.055-0.723-0.163c-0.243-0.111-0.442-0.262-0.602-0.458
	c-0.156,0.712-0.232,1.538-0.232,2.475l0.002,0.145c0,0.169-0.11,0.255-0.33,0.255l-1.582,0.062c-0.055,0-0.1-0.023-0.13-0.073
	c-0.031-0.048-0.046-0.105-0.046-0.165c0-0.581,0.211-1.704,0.635-3.372c0.426-1.667,0.638-2.784,0.638-3.35l-0.014-0.42
	c0-0.124,0.021-0.218,0.063-0.277C75.305,17.169,75.396,17.139,75.534,17.139z M77.877,18.269c-0.427,0-0.783,0.485-1.07,1.461
	c-0.13,0.449-0.197,0.812-0.197,1.088c0,0.278,0.033,0.47,0.094,0.574c0.064,0.105,0.186,0.158,0.369,0.158s0.381-0.126,0.592-0.376
	c0.212-0.254,0.383-0.571,0.512-0.952c0.131-0.382,0.195-0.726,0.195-1.034c0-0.309-0.044-0.537-0.135-0.69
	C78.145,18.343,78.023,18.269,77.877,18.269z"/>
<linearGradient id="SVGID_11_" gradientUnits="userSpaceOnUse" x1="-371.1997" y1="121.1523" x2="-369.9454" y2="122.4066" gradientTransform="matrix(3.54 0 0 6.113 1394.4739 -725.8098)">
	<stop  offset="0" style="stop-color:#FAC100"/>
	<stop  offset="0.5" style="stop-color:#FF9400"/>
	<stop  offset="1" style="stop-color:#FD2704"/>
</linearGradient>
<path fill="url(#SVGID_11_)" d="M83.254,21.508c0.152,0,0.363-0.056,0.626-0.166c0.265-0.11,0.457-0.209,0.579-0.294
	c0.121-0.086,0.207-0.129,0.252-0.129c0.098,0,0.145,0.07,0.145,0.214c0,0.064-0.035,0.136-0.106,0.22
	c-0.231,0.258-0.647,0.525-1.249,0.801c-0.602,0.278-1.137,0.417-1.609,0.417c-0.293,0-0.539-0.07-0.736-0.209
	c-0.198-0.139-0.295-0.351-0.295-0.634c0-0.172,0.097-0.598,0.295-1.27c0.373-1.279,0.56-2.238,0.56-2.887l-0.003-0.192
	c0-0.171,0.111-0.254,0.331-0.254l1.685-0.056c0.061,0,0.102,0.025,0.133,0.077c0.027,0.053,0.043,0.113,0.043,0.175
	c0,0.233-0.07,0.62-0.215,1.156c-0.145,0.538-0.285,1.063-0.43,1.58c-0.141,0.517-0.213,0.892-0.213,1.111
	C83.038,21.396,83.107,21.508,83.254,21.508z M84.209,15.205c0,0.364-0.134,0.679-0.402,0.947c-0.269,0.266-0.553,0.402-0.852,0.402
	c-0.301,0-0.532-0.09-0.699-0.27c-0.163-0.181-0.247-0.402-0.247-0.663c0-0.262,0.063-0.499,0.19-0.711
	c0.128-0.212,0.292-0.378,0.494-0.502c0.205-0.122,0.427-0.183,0.664-0.183c0.238,0,0.439,0.093,0.604,0.283
	C84.126,14.693,84.209,14.927,84.209,15.205z"/>
<linearGradient id="SVGID_12_" gradientUnits="userSpaceOnUse" x1="-431.3262" y1="180.6602" x2="-430.0788" y2="181.9077" gradientTransform="matrix(6.212 0 0 4.103 2762.8574 -723.806)">
	<stop  offset="0" style="stop-color:#FAC100"/>
	<stop  offset="0.5" style="stop-color:#FF9400"/>
	<stop  offset="1" style="stop-color:#FD2704"/>
</linearGradient>
<path fill="url(#SVGID_12_)" d="M91.132,20.919c0.083,0,0.124,0.057,0.124,0.174c0,0.116-0.041,0.219-0.123,0.307
	c-0.082,0.089-0.203,0.189-0.365,0.303c-0.164,0.115-0.363,0.239-0.603,0.373c-0.239,0.135-0.517,0.251-0.831,0.349
	c-0.314,0.097-0.615,0.145-0.898,0.145c-0.678,0-1.013-0.23-1.013-0.691c0-0.297,0.113-0.83,0.343-1.597
	c0.227-0.768,0.342-1.283,0.342-1.551c0-0.303-0.158-0.453-0.476-0.453c-0.142,0-0.306,0.024-0.485,0.079
	c-0.09,0.456-0.24,1.177-0.461,2.163c-0.223,0.986-0.349,1.551-0.375,1.686c-0.029,0.133-0.09,0.202-0.183,0.202l-1.755,0.056
	c-0.025,0-0.053-0.025-0.083-0.067c-0.028-0.045-0.045-0.102-0.045-0.164c0-0.063,0.048-0.285,0.146-0.667
	c0.096-0.379,0.205-0.79,0.317-1.229c0.118-0.438,0.226-0.921,0.321-1.447c0.095-0.526,0.145-0.964,0.145-1.308l-0.004-0.194
	c0-0.169,0.111-0.255,0.332-0.255l1.613-0.055c0.061,0,0.104,0.025,0.135,0.077c0.027,0.052,0.043,0.117,0.043,0.194
	c0,0.074-0.014,0.198-0.039,0.366c0.803-0.498,1.456-0.745,1.969-0.745c0.221,0,0.418,0.086,0.598,0.267
	c0.199,0.199,0.299,0.504,0.299,0.909c0,0.417-0.104,0.963-0.314,1.635c-0.212,0.673-0.318,1.091-0.318,1.25
	c0,0.315,0.084,0.473,0.255,0.473c0.104,0,0.288-0.061,0.547-0.181c0.259-0.121,0.45-0.22,0.571-0.297
	C90.98,20.957,91.07,20.919,91.132,20.919z"/>
<linearGradient id="SVGID_13_" gradientUnits="userSpaceOnUse" x1="-430.584" y1="125.917" x2="-429.3236" y2="127.1785" gradientTransform="matrix(6.166 0 0 5.887 2745.0654 -723.7996)">
	<stop  offset="0" style="stop-color:#FAC100"/>
	<stop  offset="0.5" style="stop-color:#FF9400"/>
	<stop  offset="1" style="stop-color:#FD2704"/>
</linearGradient>
<path fill="url(#SVGID_13_)" d="M90.691,24.092c0-0.206,0.109-0.405,0.33-0.598c0.219-0.193,0.502-0.363,0.851-0.505
	c0.628-0.259,1.284-0.458,1.964-0.597c0.078-0.329,0.152-0.647,0.223-0.947c-0.244,0.266-0.517,0.478-0.818,0.629
	c-0.303,0.151-0.576,0.228-0.821,0.228c-0.246,0-0.448-0.03-0.621-0.093c-0.167-0.064-0.319-0.165-0.466-0.298
	c-0.307-0.292-0.458-0.771-0.458-1.439s0.121-1.271,0.36-1.806c0.24-0.537,0.566-0.95,0.979-1.247c0.412-0.295,0.88-0.445,1.4-0.445
	c0.523,0,0.928,0.169,1.214,0.512c0.208-0.096,0.446-0.18,0.722-0.254c0.273-0.074,0.488-0.109,0.645-0.109
	c0.154,0,0.287,0.056,0.396,0.169c0.108,0.113,0.163,0.237,0.163,0.382c0,0.144-0.034,0.364-0.1,0.654
	c-0.068,0.292-0.182,0.778-0.346,1.458c-0.166,0.681-0.318,1.365-0.469,2.051c0.458-0.187,0.948-0.461,1.465-0.828
	c0.088-0.06,0.152-0.09,0.202-0.09c0.099,0,0.149,0.06,0.149,0.176c0,0.093-0.041,0.181-0.122,0.27
	c-0.374,0.417-0.986,0.806-1.835,1.158l-0.092,0.454c-0.066,0.315-0.182,0.599-0.35,0.847c-0.168,0.244-0.357,0.44-0.574,0.585
	c-0.217,0.146-0.464,0.265-0.744,0.358c-0.486,0.163-1.033,0.243-1.646,0.243C91.225,25.007,90.691,24.704,90.691,24.092z
	 M93.535,23.651l0.162-0.676c-1.016,0.237-1.523,0.584-1.523,1.03c0,0.131,0.042,0.238,0.125,0.316
	c0.086,0.078,0.194,0.12,0.325,0.12C93.105,24.443,93.411,24.18,93.535,23.651z M93.925,20.817c0.179-0.212,0.332-0.544,0.466-0.995
	c0.131-0.449,0.2-0.813,0.2-1.089c0-0.277-0.032-0.469-0.096-0.575c-0.063-0.105-0.185-0.157-0.367-0.157
	c-0.187,0-0.386,0.119-0.604,0.354c-0.217,0.235-0.396,0.535-0.533,0.901c-0.137,0.365-0.204,0.702-0.204,1.005
	c0,0.305,0.045,0.524,0.134,0.662c0.089,0.138,0.188,0.206,0.298,0.206c0.111,0,0.194-0.004,0.253-0.015
	c0.051-0.011,0.125-0.04,0.213-0.09C93.771,20.974,93.852,20.905,93.925,20.817z"/>
<g>
	<linearGradient id="SVGID_14_" gradientUnits="userSpaceOnUse" x1="4.8398" y1="70.5781" x2="18.0976" y2="83.2475">
		<stop  offset="0" style="stop-color:#FAC100"/>
		<stop  offset="0.5" style="stop-color:#FF9400"/>
		<stop  offset="1" style="stop-color:#FD2704"/>
	</linearGradient>
	<path fill="url(#SVGID_14_)" d="M17.935,74.666l-13.31,0.018c0,0,1.724,8.01,4.962,8.006l5.328-0.008
		c-0.054-0.398-0.092-0.805-0.092-1.219C14.823,78.746,16.032,76.316,17.935,74.666z"/>
	<linearGradient id="SVGID_15_" gradientUnits="userSpaceOnUse" x1="33.6694" y1="60.2881" x2="69.1528" y2="94.1968">
		<stop  offset="0" style="stop-color:#FAC100"/>
		<stop  offset="0.5" style="stop-color:#FF9400"/>
		<stop  offset="1" style="stop-color:#FD2704"/>
	</linearGradient>
	<path fill="url(#SVGID_15_)" d="M73.182,74.682l-43.394,0.055c1.858,1.648,3.035,4.048,3.035,6.728
		c0,0.437-0.042,0.862-0.102,1.282l37.458-0.048c-0.057-0.405-0.096-0.814-0.096-1.234C70.085,78.755,71.287,76.331,73.182,74.682z"
		/>
	<linearGradient id="SVGID_16_" gradientUnits="userSpaceOnUse" x1="84.958" y1="71.1172" x2="97.1363" y2="82.755">
		<stop  offset="0" style="stop-color:#FAC100"/>
		<stop  offset="0.5" style="stop-color:#FF9400"/>
		<stop  offset="1" style="stop-color:#FD2704"/>
	</linearGradient>
	<path fill="url(#SVGID_16_)" d="M87.592,74.677c0.002-0.004,0.004-0.009,0.008-0.014l-2.627,0.003
		c1.903,1.65,3.112,4.08,3.112,6.797c0,0.416-0.038,0.823-0.093,1.225l5.572-0.008c3.043-1.826,4.177-8.017,4.177-8.017
		L87.592,74.677z"/>
	<linearGradient id="SVGID_17_" gradientUnits="userSpaceOnUse" x1="72.4307" y1="75.1035" x2="85.7473" y2="87.8292">
		<stop  offset="0" style="stop-color:#FAC100"/>
		<stop  offset="0.5" style="stop-color:#FF9400"/>
		<stop  offset="1" style="stop-color:#FD2704"/>
	</linearGradient>
	<ellipse fill="url(#SVGID_17_)" cx="79.085" cy="81.463" rx="6.5" ry="6.523"/>
	<linearGradient id="SVGID_18_" gradientUnits="userSpaceOnUse" x1="17.168" y1="75.1035" x2="30.4866" y2="87.8311">
		<stop  offset="0" style="stop-color:#FAC100"/>
		<stop  offset="0.5" style="stop-color:#FF9400"/>
		<stop  offset="1" style="stop-color:#FD2704"/>
	</linearGradient>
	<ellipse fill="url(#SVGID_18_)" cx="23.823" cy="81.463" rx="6.524" ry="6.5"/>
</g>
<linearGradient id="SVGID_19_" gradientUnits="userSpaceOnUse" x1="56.5664" y1="24.5869" x2="56.5664" y2="24.5869" gradientTransform="matrix(1 0 0 -1 8.3398 76.04)">
	<stop  offset="0" style="stop-color:#FAC100"/>
	<stop  offset="0.5" style="stop-color:#FF9400"/>
	<stop  offset="1" style="stop-color:#FD2704"/>
</linearGradient>
<path fill="url(#SVGID_19_)" d="M64.906,51.453"/>
<linearGradient id="SVGID_20_" gradientUnits="userSpaceOnUse" x1="-2.4834" y1="36.0342" x2="12.7105" y2="21.5145" gradientTransform="matrix(1 0 0 -1 8.3398 76.04)">
	<stop  offset="0" style="stop-color:#FAC100"/>
	<stop  offset="0.5" style="stop-color:#FF9400"/>
	<stop  offset="1" style="stop-color:#FD2704"/>
</linearGradient>
<path fill="url(#SVGID_20_)" d="M14.735,34.214c-1.669,0-3.357,0.662-5.065,1.982c-0.806,0.631-1.573,1.408-2.3,2.331
	c-0.727,0.922-1.365,1.926-1.911,3.013c-0.547,1.087-0.981,2.3-1.303,3.64c-0.32,1.341-0.481,2.711-0.481,4.108
	c0,2.376,0.436,4.261,1.311,5.651c0.45,0.718,1.057,1.27,1.822,1.649c0.763,0.386,1.656,0.577,2.676,0.577s1.917-0.167,2.689-0.509
	c-0.096,0.342-0.194,0.641-0.296,0.901c-0.242,0.59-0.607,1.133-1.091,1.616c-0.423,0.419-0.634,0.831-0.634,1.238
	c0,0.61,0.837,0.917,2.511,0.917c0.914,0,1.71-0.221,2.389-0.663c0.679-0.44,1.185-1.104,1.518-1.985
	c0.203-0.535,0.529-2.089,0.981-4.662c0.451-2.571,0.774-4.192,0.972-4.862c0.197-0.671,0.296-1.146,0.296-1.428
	c0-0.408-0.181-0.704-0.541-0.881c-0.361-0.181-1.104-0.272-2.229-0.272s-2.092,0.148-2.905,0.439
	c-0.811,0.292-1.217,0.708-1.217,1.252c0,0.418,0.253,0.707,0.76,0.859c0.192,0.06,0.367,0.165,0.525,0.321
	c0.157,0.154,0.237,0.352,0.237,0.589c0,0.235-0.092,0.891-0.275,1.959c-0.183,1.065-0.388,2.094-0.613,3.085
	c-0.045,0.011-0.113,0.015-0.203,0.015c-1.06,0-1.851-0.626-2.372-1.876c-0.521-1.255-0.782-3.003-0.782-5.25
	c0-2.248,0.374-4.441,1.124-6.576c0.343-0.989,0.733-1.877,1.167-2.664s0.903-1.4,1.408-1.842c0.504-0.442,0.959-0.663,1.365-0.663
	c0.953,0,1.43,0.313,1.43,0.945c0,0.35-0.156,1.079-0.473,2.186c-0.316,1.107-0.474,1.733-0.474,1.878c0,0.65,0.257,1.15,0.77,1.5
	c0.27,0.184,0.597,0.277,0.98,0.277c1.134,0,1.965-0.448,2.495-1.34c0.468-0.787,0.702-1.632,0.702-2.535
	c0-1.553-0.41-2.764-1.23-3.625C17.648,34.646,16.403,34.214,14.735,34.214z"/>
<linearGradient id="SVGID_21_" gradientUnits="userSpaceOnUse" x1="14.0845" y1="31.5205" x2="24.067" y2="21.981" gradientTransform="matrix(1 0 0 -1 8.3398 76.04)">
	<stop  offset="0" style="stop-color:#FAC100"/>
	<stop  offset="0.5" style="stop-color:#FF9400"/>
	<stop  offset="1" style="stop-color:#FD2704"/>
</linearGradient>
<path fill="url(#SVGID_21_)" d="M37.362,47.016c0-0.358-0.107-0.54-0.322-0.54c-0.105,0-0.285,0.109-0.537,0.321
	c-0.25,0.214-0.516,0.373-0.799,0.48c-0.282,0.107-0.633,0.161-1.053,0.161c-0.419,0-0.826-0.113-1.222-0.335
	c-0.266-3.592-2.044-5.387-5.335-5.387c-1.676,0-3.161,0.538-4.457,1.615c-0.648,0.535-1.216,1.175-1.703,1.923
	c-0.488,0.747-0.871,1.633-1.15,2.659c-0.278,1.023-0.418,2.12-0.418,3.284c0,2.229,0.53,3.896,1.59,4.992
	c0.507,0.524,1.102,0.914,1.784,1.176c0.682,0.258,1.501,0.386,2.456,0.386c0.956,0,1.879-0.226,2.774-0.672
	c0.894-0.446,1.647-1.058,2.262-1.833c1.285-1.621,2.019-3.656,2.198-6.103c0.242,0.07,0.558,0.103,0.948,0.103
	c1.033,0,1.861-0.371,2.486-1.108C37.196,47.749,37.362,47.376,37.362,47.016z M28.504,50.406c-0.234,1.349-0.56,2.482-0.981,3.394
	c-0.419,0.913-0.872,1.368-1.356,1.368c-0.762,0-1.142-0.9-1.142-2.693c0-1.35,0.14-2.667,0.419-3.954
	c0.278-1.287,0.651-2.332,1.116-3.139c0.464-0.805,0.945-1.208,1.441-1.208c0.569,0,0.854,0.702,0.854,2.104
	C28.855,47.679,28.737,49.057,28.504,50.406z"/>
<linearGradient id="SVGID_22_" gradientUnits="userSpaceOnUse" x1="26.9424" y1="32.1147" x2="39.0615" y2="20.5335" gradientTransform="matrix(1 0 0 -1 8.3398 76.04)">
	<stop  offset="0" style="stop-color:#FAC100"/>
	<stop  offset="0.5" style="stop-color:#FF9400"/>
	<stop  offset="1" style="stop-color:#FD2704"/>
</linearGradient>
<path fill="url(#SVGID_22_)" d="M46.177,46.319c-0.395-0.544-0.79-1.059-1.185-1.543c-0.395-0.485-0.756-0.943-1.083-1.37
	c-0.326-0.427-0.593-0.845-0.799-1.252c-0.206-0.408-0.309-0.742-0.309-1.004c0-0.263,0.043-0.563,0.127-0.896
	c0.084-0.335,0.127-0.585,0.127-0.75s-0.059-0.311-0.178-0.438c-0.118-0.125-0.299-0.188-0.541-0.188
	c-0.881,0-1.735,0.232-2.563,0.698c-0.462,0.251-0.875,0.567-1.238,0.946c-0.365,0.378-0.664,0.873-0.898,1.485
	c-0.233,0.612-0.35,1.296-0.35,2.053c0,1.067,0.346,2.165,1.039,3.29c0.305,0.496,0.643,0.991,1.016,1.485
	c0.372,0.497,0.744,0.966,1.117,1.409c0.372,0.439,0.711,0.857,1.018,1.259c0.309,0.397,0.558,0.785,0.749,1.159
	c0.19,0.371,0.287,0.706,0.287,1.001c0,0.297-0.089,0.591-0.271,0.883c-0.18,0.289-0.479,0.438-0.896,0.438
	c-0.84,0-1.705-0.457-2.596-1.373c-0.368-0.365-0.707-0.74-1.02-1.117c-0.312-0.381-0.587-0.702-0.824-0.971
	c-0.237-0.267-0.412-0.398-0.525-0.398c-0.196,0-0.467,0.605-0.811,1.813c-0.343,1.209-0.516,2-0.516,2.367
	c0,0.365,0.071,0.61,0.212,0.728c0.4,0.358,1.258,0.733,2.577,1.129c1.315,0.394,2.52,0.591,3.614,0.591
	c1.094,0,2.021-0.102,2.782-0.299c0.762-0.2,1.461-0.52,2.098-0.954c0.637-0.437,1.135-1.054,1.492-1.851
	c0.358-0.795,0.538-1.787,0.538-2.977c0-1.188-0.37-2.42-1.108-3.69C46.931,47.415,46.572,46.863,46.177,46.319z"/>
<linearGradient id="SVGID_23_" gradientUnits="userSpaceOnUse" x1="31.356" y1="32.8179" x2="40.5725" y2="42.0345" gradientTransform="matrix(1 0 0 -1 8.3398 76.04)">
	<stop  offset="0" style="stop-color:#FAC100"/>
	<stop  offset="0.5" style="stop-color:#FF9400"/>
	<stop  offset="1" style="stop-color:#FD2704"/>
</linearGradient>
<path fill="url(#SVGID_23_)" d="M51.234,36.915c0.01-0.383-0.024-0.615-0.104-0.692c-1.411-1.34-3.499-2.01-6.265-2.01
	c-1.873,0-3.625,0.434-5.262,1.296c-0.715,0.379-1.358,0.789-1.923,1.231c-0.568,0.442-1.001,0.873-1.303,1.29
	c-0.302,0.417-0.452,0.776-0.452,1.078c0,0.368,0.113,0.553,0.338,0.553c0.113,0,0.304-0.093,0.575-0.277
	c2.012-1.408,4.103-2.111,6.274-2.111c1.183,0,2.322,0.371,3.412,1.114c1.092,0.742,2.005,1.87,2.743,3.385
	c0.103,0,0.177,0.048,0.231,0.146c0.196,0,0.435-0.339,0.714-1.019c0.277-0.681,0.519-1.418,0.714-2.215
	C51.125,37.888,51.229,37.298,51.234,36.915z"/>
<linearGradient id="SVGID_24_" gradientUnits="userSpaceOnUse" x1="59.625" y1="31.5225" x2="69.6081" y2="21.9824" gradientTransform="matrix(1 0 0 -1 8.3398 76.04)">
	<stop  offset="0" style="stop-color:#FAC100"/>
	<stop  offset="0.5" style="stop-color:#FF9400"/>
	<stop  offset="1" style="stop-color:#FD2704"/>
</linearGradient>
<path fill="url(#SVGID_24_)" d="M82.902,47.016c0-0.358-0.106-0.54-0.321-0.54c-0.104,0-0.285,0.109-0.537,0.321
	c-0.25,0.214-0.517,0.373-0.799,0.48s-0.634,0.161-1.054,0.161c-0.418,0-0.825-0.113-1.223-0.335
	c-0.266-3.592-2.044-5.387-5.335-5.387c-1.676,0-3.159,0.538-4.457,1.615c-0.647,0.535-1.216,1.175-1.702,1.923
	c-0.488,0.747-0.871,1.633-1.149,2.659c-0.278,1.023-0.419,2.12-0.419,3.284c0,2.229,0.531,3.896,1.591,4.992
	c0.507,0.524,1.103,0.914,1.784,1.176c0.682,0.258,1.5,0.386,2.455,0.386c0.957,0,1.879-0.226,2.773-0.672s1.647-1.058,2.264-1.833
	c1.285-1.621,2.019-3.656,2.197-6.103c0.241,0.07,0.559,0.103,0.947,0.103c1.033,0,1.859-0.371,2.484-1.108
	C82.736,47.749,82.902,47.376,82.902,47.016z M74.045,50.406c-0.234,1.349-0.561,2.482-0.98,3.394
	c-0.42,0.913-0.873,1.368-1.355,1.368c-0.764,0-1.143-0.9-1.143-2.693c0-1.35,0.141-2.667,0.418-3.954
	c0.279-1.287,0.652-2.332,1.117-3.139c0.463-0.805,0.944-1.208,1.44-1.208c0.569,0,0.854,0.702,0.854,2.104
	C74.396,47.679,74.277,49.057,74.045,50.406z"/>
<linearGradient id="SVGID_25_" gradientUnits="userSpaceOnUse" x1="48.6763" y1="40.8535" x2="65.0511" y2="56.5016">
	<stop  offset="0" style="stop-color:#FAC100"/>
	<stop  offset="0.5" style="stop-color:#FF9400"/>
	<stop  offset="1" style="stop-color:#FD2704"/>
</linearGradient>
<path fill="url(#SVGID_25_)" d="M54.438,35.278l3.821-0.044c0.128,0,0.232,0.071,0.313,0.214c0.08,0.143,0.121,0.376,0.121,0.702
	c0,0.326-0.114,1.278-0.344,2.859c-0.228,1.581-0.482,3.129-0.768,4.646c0.729-0.552,1.536-1.052,2.42-1.5
	c0.885-0.448,1.682-0.672,2.389-0.672c0.533,0,1.021,0.261,1.459,0.783c0.49,0.581,0.734,1.463,0.734,2.645
	c0,1.172-0.259,2.753-0.775,4.743c-0.518,1.991-0.775,3.26-0.775,3.812c0,0.808,0.22,1.211,0.658,1.211
	c0.869,0,1.851-0.497,2.947-1.491c0.166-0.158,0.303-0.236,0.408-0.236c0.229,0,0.342,0.18,0.342,0.539s-0.127,0.68-0.38,0.961
	c-0.253,0.279-0.571,0.581-0.954,0.9c-0.386,0.319-0.865,0.672-1.445,1.057c-1.352,0.896-2.795,1.345-4.33,1.345
	c-1.536,0-2.305-0.67-2.305-2.01c0-0.866,0.279-2.415,0.84-4.646c0.559-2.231,0.838-3.737,0.838-4.515
	c0-0.936-0.387-1.404-1.159-1.404c-0.429,0-0.853,0.118-1.269,0.354c-0.92,4.767-1.578,8.504-1.979,11.213
	c-0.027,0.188-0.091,0.324-0.188,0.414c-0.098,0.089-0.183,0.133-0.255,0.133l-4.298,0.162c-0.062,0-0.129-0.066-0.205-0.199
	c-0.076-0.133-0.113-0.298-0.113-0.495c0-0.196,0.179-1.187,0.539-2.97c0.358-1.782,0.754-3.718,1.186-5.806
	c0.431-2.088,0.826-4.26,1.186-6.516c0.358-2.255,0.538-3.935,0.538-5.038l-0.009-0.414C53.627,35.524,53.896,35.278,54.438,35.278z
	"/>
<linearGradient id="SVGID_26_" gradientUnits="userSpaceOnUse" x1="79.7568" y1="45.4912" x2="92.6643" y2="57.8259">
	<stop  offset="0" style="stop-color:#FAC100"/>
	<stop  offset="0.5" style="stop-color:#FF9400"/>
	<stop  offset="1" style="stop-color:#FD2704"/>
</linearGradient>
<path fill="url(#SVGID_26_)" d="M83.479,42.074l3.776-0.117c0.146,0.001,0.252,0.068,0.322,0.203
	c0.071,0.134,0.104,0.285,0.104,0.454c-0.002,0.169-0.022,0.457-0.063,0.866c-0.042,0.41-0.063,0.71-0.063,0.9
	c1.031-1.788,2.397-2.677,4.1-2.666c1.037,0.007,1.853,0.425,2.441,1.253c0.59,0.828,0.881,1.997,0.87,3.507
	c-0.021,2.935-0.774,5.331-2.269,7.183c1.72-0.179,3.043-0.666,3.968-1.462c0.308-0.266,0.532-0.397,0.676-0.396
	c0.188,0.001,0.282,0.161,0.28,0.48c-0.002,0.226-0.105,0.451-0.313,0.685c-0.949,1.021-2.166,1.772-3.654,2.254
	c-1.485,0.482-3.082,0.718-4.791,0.706c-0.209,0.018-0.366,0.023-0.473,0.021c-0.588-0.004-1.176-0.146-1.761-0.426
	c-0.586-0.28-1.069-0.672-1.456-1.176c-0.395,1.818-0.6,3.92-0.615,6.303l0.006,0.375c-0.004,0.432-0.272,0.646-0.812,0.642
	l-3.866,0.13c-0.134-0.001-0.238-0.064-0.316-0.191c-0.075-0.123-0.113-0.266-0.112-0.42c0.01-1.477,0.548-4.334,1.612-8.58
	c1.064-4.244,1.604-7.085,1.613-8.526l-0.026-1.074c0.003-0.319,0.055-0.554,0.159-0.705C82.919,42.146,83.141,42.072,83.479,42.074
	z M89.18,44.987c-1.041-0.007-1.921,1.23-2.637,3.711c-0.328,1.137-0.495,2.06-0.5,2.767c-0.005,0.708,0.068,1.196,0.219,1.465
	c0.151,0.27,0.449,0.404,0.896,0.406c0.445,0.004,0.931-0.314,1.453-0.955c0.521-0.639,0.945-1.445,1.269-2.418
	c0.322-0.973,0.485-1.849,0.491-2.631c0.005-0.781-0.104-1.367-0.32-1.756C89.83,45.185,89.541,44.989,89.18,44.987z"/>
<g>
	<linearGradient id="SVGID_27_" gradientUnits="userSpaceOnUse" x1="34.8525" y1="40.8804" x2="77.5146" y2="81.6491">
		<stop  offset="0" style="stop-color:#FAC100"/>
		<stop  offset="0.5" style="stop-color:#FF9400"/>
		<stop  offset="1" style="stop-color:#FD2704"/>
	</linearGradient>
	<path fill="url(#SVGID_27_)" d="M89.066,57.951c-0.955,0-1.773-0.128-2.455-0.387c-0.063-0.023-0.115-0.063-0.176-0.09
		c-0.697,3.254-1.285,5.68-1.574,6.153c-0.84,1.375-2.795,2.31-3.252,2.327C79.172,66.048,76.727,66,74.111,66
		c0-0.012,0-0.02,0.002-0.027h-0.002c-0.041-0.846,0.262-3.891,0.726-7.804c-0.104,0.052-0.204,0.108-0.313,0.158
		C73.521,58.775,72.492,59,71.422,59c-0.949,0-1.771-0.107-2.48-0.313c-0.381,2.809-0.646,4.738-0.678,4.94
		c-0.087,0.585-0.166,1.172-0.25,1.755c-0.031,0.233-0.354,0.598-0.549,0.6c-2.759,0.033-5.521,0.014-8.281-0.002
		c-0.078,0-0.158-0.086-0.252-0.145c0-1.893,0-3.785,0-5.684c0-0.094,0-0.521,0-1.18c-0.062,0.019-0.115,0.047-0.178,0.063
		c-0.76,0.196-1.688,0.299-2.781,0.299c-0.984,0-2.065-0.171-3.231-0.49c0,0.652,0,1.11,0,1.31c0,0.804,0,1.604,0,2.408
		c-2.996,0-5.934,0-8.934,0c-0.102-0.707-0.205-1.418-0.307-2.125c-0.602,0.097-1.278,0.148-2.042,0.148
		c-1.094,0-2.299-0.197-3.614-0.591c-0.238-0.071-0.443-0.142-0.651-0.211c0.022,0.163,0.04,0.296,0.049,0.368
		c0.064,0.337,0.126,0.674,0.183,1.011c0.071,0.432,0.086,0.873,0.14,1.438c-2.761,0.002-5.362,0.049-7.96-0.021
		c-0.903-0.027-1.553-0.592-1.803-1.652c-0.056-0.234-0.113-0.472-0.17-0.708c-0.542,0.128-1.091,0.195-1.65,0.195
		c-1.155,0-2.145-0.156-2.97-0.472c-0.824-0.319-1.544-0.795-2.157-1.437c-0.235-0.245-0.441-0.522-0.633-0.813
		c-0.138,0.007-0.274,0.021-0.413,0.023c0.314,1.174,0.545,2.032,0.652,2.436c0.486,1.91,0.956,3.828,1.443,5.781
		c0,0,2.13,6.229,9.216,6.229c16.898,0,33.135,0.01,50.032,0c4.697-0.002,9.324-4.957,9.77-8.896l1.346-6.232
		c-0.142,0.085-0.281,0.17-0.428,0.244C90.943,57.727,90.023,57.951,89.066,57.951z"/>
	<linearGradient id="SVGID_28_" gradientUnits="userSpaceOnUse" x1="18.0806" y1="-4.9937" x2="82.5878" y2="56.6508">
		<stop  offset="0" style="stop-color:#FAC100"/>
		<stop  offset="0.5" style="stop-color:#FF9400"/>
		<stop  offset="1" style="stop-color:#FD2704"/>
	</linearGradient>
	<path fill="url(#SVGID_28_)" d="M97.341,31.333c-0.317-2.987-3.263-5.19-6.479-5.194c-19.998-0.018-40-0.121-60-0.203
		c-3.879-0.016-7.76-0.044-11.637-0.107c-0.319-0.005-0.823-0.262-0.921-0.536c-0.463-1.291-0.849-2.617-1.2-3.949
		c-0.21-0.803-0.634-2.414-0.634-2.414c-0.12-0.477-0.237-0.955-0.363-1.431c-1.14-4.317-3.728-6.661-8.004-6.622
		c-0.382,0.003-0.766,0.004-1.148,0.005v-0.006c-0.199-0.002-0.398-0.001-0.597-0.003c-1.681-0.017-2.959,0.576-3.618,2.338
		c0,0.48,0,0.959,0,1.44c0.615,1.789,1.894,2.383,3.521,2.412v0.004c0.033,0,0.065,0,0.098,0c0.02,0,0.039,0.002,0.058,0.002
		c0.18-0.001,0.358,0,0.538,0v-0.002c0.402,0,0.805-0.001,1.207,0c1.18,0.003,1.623,0.4,1.948,1.625
		c0.027,0.105,1.329,4.724,1.92,6.927c0.207,0.771,0.844,3.157,1.693,6.338c0.733-0.13,1.463-0.203,2.191-0.203
		c2.337,0,4.103,0.443,5.306,1.319c-0.614-2.313-1.05-3.954-1.168-4.4c1.187,0,2.352-0.005,3.515,0
		c3.15,0.012,6.296,0.04,9.445,0.03c0.621-0.002,0.869,0.183,0.938,0.9c0.036,0.373,0.237,1.936,0.53,4.156
		c0.393-0.265,0.806-0.521,1.258-0.762c1.474-0.776,3.047-1.186,4.711-1.264c-0.171-0.947-0.354-1.905-0.532-2.904
		c4.595,0,9.056,0,13.592,0c0,0.47,0,2.383,0.002,5.033c1.268-0.483,2.602-0.727,4.002-0.727c0.795,0,1.526,0.063,2.209,0.172
		c0-0.578,0-0.947,0-1.034c4.486,0,8.946,0,13.604,0c-0.041,0.26-0.44,3.199-0.981,7.175c0.532-0.059,1.075-0.092,1.634-0.092
		c1.631,0,2.981,0.233,4.103,0.665c0.55-3.605,1.015-6.278,1.239-6.817c0.017-0.099,0.41-0.88,0.604-0.881
		c3.779-0.036,7.55-0.027,11.492-0.027c-0.2,0.831-0.584,2.467-0.584,2.467c0,0.008,0.005,0.015,0.005,0.023
		c0,0-0.427,2.339-1.051,5.679c1.242-0.679,2.654-1.01,4.246-0.972c0.728,0.017,1.369,0.139,1.951,0.336l1.09-5.042
		c0.07-0.308,0.111-0.509,0.111-0.509C97.354,33.313,97.436,32.296,97.341,31.333z"/>
</g>
</svg>
